<svg width="20" height="18" viewBox="0 0 20 18" fill="none" xmlns="http://www.w3.org/2000/svg">
<path fill-rule="evenodd" clip-rule="evenodd" d="M12 14.8835C11.3818 15.0769 10.7241 15.1811 10.0422 15.1811C6.42512 15.1811 3.49292 12.2489 3.49292 8.63188C3.49292 7.28838 3.89746 6.03936 4.59138 5C1.93071 5.83241 0 8.31652 0 11.2516C0 14.8686 2.93219 17.8008 6.54923 17.8008C8.82277 17.8008 10.8257 16.6423 12 14.8835Z" fill="white"/>
<path fill-rule="evenodd" clip-rule="evenodd" d="M12 14.8835C11.3818 15.0769 10.7241 15.1811 10.0422 15.1811C6.42512 15.1811 3.49292 12.2489 3.49292 8.63188C3.49292 7.28838 3.89746 6.03936 4.59138 5C1.93071 5.83241 0 8.31652 0 11.2516C0 14.8686 2.93219 17.8008 6.54923 17.8008C8.82277 17.8008 10.8257 16.6423 12 14.8835Z" fill="white"/>
<path fill-rule="evenodd" clip-rule="evenodd" d="M12 14.8835C11.3818 15.0769 10.7241 15.1811 10.0422 15.1811C6.42512 15.1811 3.49292 12.2489 3.49292 8.63188C3.49292 7.28838 3.89746 6.03936 4.59138 5C1.93071 5.83241 0 8.31652 0 11.2516C0 14.8686 2.93219 17.8008 6.54923 17.8008C8.82277 17.8008 10.8257 16.6423 12 14.8835Z" fill="white"/>
<path fill-rule="evenodd" clip-rule="evenodd" d="M12 14.8835C11.3818 15.0769 10.7241 15.1811 10.0422 15.1811C6.42512 15.1811 3.49292 12.2489 3.49292 8.63188C3.49292 7.28838 3.89746 6.03936 4.59138 5C1.93071 5.83241 0 8.31652 0 11.2516C0 14.8686 2.93219 17.8008 6.54923 17.8008C8.82277 17.8008 10.8257 16.6423 12 14.8835Z" fill="white"/>
<circle cx="14" cy="6" r="5" stroke="white" stroke-width="2" stroke-dasharray="2 2"/>
<circle cx="14" cy="6" r="2" fill="white"/>
</svg>
