<svg width="18" height="20" viewBox="0 0 18 20" fill="none" xmlns="http://www.w3.org/2000/svg">
<path fill-rule="evenodd" clip-rule="evenodd" d="M17.9999 14.8255C17.0727 15.1155 16.0864 15.2718 15.0636 15.2718C9.63803 15.2718 5.23974 10.8735 5.23974 5.44797C5.23974 3.43265 5.84659 1.55908 6.88752 0C2.89629 1.24847 0 4.97475 0 9.3775C0 14.8031 4.39828 19.2013 9.82384 19.2013C13.2341 19.2013 16.2385 17.4637 17.9999 14.8255Z" fill="white"/>
<path fill-rule="evenodd" clip-rule="evenodd" d="M17.9999 14.8255C17.0727 15.1155 16.0864 15.2718 15.0636 15.2718C9.63803 15.2718 5.23974 10.8735 5.23974 5.44797C5.23974 3.43265 5.84659 1.55908 6.88752 0C2.89629 1.24847 0 4.97475 0 9.3775C0 14.8031 4.39828 19.2013 9.82384 19.2013C13.2341 19.2013 16.2385 17.4637 17.9999 14.8255Z" fill="white"/>
<path fill-rule="evenodd" clip-rule="evenodd" d="M17.9999 14.8255C17.0727 15.1155 16.0864 15.2718 15.0636 15.2718C9.63803 15.2718 5.23974 10.8735 5.23974 5.44797C5.23974 3.43265 5.84659 1.55908 6.88752 0C2.89629 1.24847 0 4.97475 0 9.3775C0 14.8031 4.39828 19.2013 9.82384 19.2013C13.2341 19.2013 16.2385 17.4637 17.9999 14.8255Z" fill="white"/>
<path fill-rule="evenodd" clip-rule="evenodd" d="M17.9999 14.8255C17.0727 15.1155 16.0864 15.2718 15.0636 15.2718C9.63803 15.2718 5.23974 10.8735 5.23974 5.44797C5.23974 3.43265 5.84659 1.55908 6.88752 0C2.89629 1.24847 0 4.97475 0 9.3775C0 14.8031 4.39828 19.2013 9.82384 19.2013C13.2341 19.2013 16.2385 17.4637 17.9999 14.8255Z" fill="white"/>
</svg>
