<svg width="19" height="19" viewBox="0 0 19 19" fill="none" xmlns="http://www.w3.org/2000/svg">
<path fill-rule="evenodd" clip-rule="evenodd" d="M18.8192 11.354L14.8952 10.5778C14.9635 10.2324 15 9.87244 15 9.5C15 9.12756 14.9635 8.7676 14.8952 8.42224L18.8192 7.64596C18.9378 8.2456 19 8.86554 19 9.5C19 10.1345 18.9378 10.7544 18.8192 11.354ZM17.3999 4.22165L14.076 6.44693C13.6733 5.84542 13.1546 5.3267 12.5531 4.924L14.7783 1.60013C15.8143 2.29371 16.7063 3.18566 17.3999 4.22165ZM11.354 0.180823L10.5778 4.10477C10.2324 4.03645 9.87244 4 9.5 4C9.12756 4 8.7676 4.03645 8.42224 4.10477L7.64596 0.180824C8.2456 0.062196 8.86554 0 9.5 0C10.1345 0 10.7544 0.0621959 11.354 0.180823ZM4.22165 1.60013L6.44693 4.924C5.84542 5.3267 5.3267 5.84542 4.924 6.44693L1.60013 4.22165C2.29371 3.18566 3.18566 2.29371 4.22165 1.60013ZM0.180823 7.64596C0.062196 8.2456 0 8.86554 0 9.5C0 10.1345 0.062196 10.7544 0.180824 11.354L4.10477 10.5778C4.03645 10.2324 4 9.87244 4 9.5C4 9.12756 4.03645 8.7676 4.10477 8.42224L0.180823 7.64596ZM1.60013 14.7783L4.924 12.5531C5.3267 13.1546 5.84542 13.6733 6.44693 14.076L4.22165 17.3999C3.18566 16.7063 2.29371 15.8143 1.60013 14.7783ZM7.64596 18.8192L8.42224 14.8952C8.7676 14.9635 9.12756 15 9.5 15C9.87244 15 10.2324 14.9635 10.5778 14.8952L11.354 18.8192C10.7544 18.9378 10.1345 19 9.5 19C8.86554 19 8.2456 18.9378 7.64596 18.8192ZM14.7783 17.3999L12.5531 14.076C13.1546 13.6733 13.6733 13.1546 14.076 12.5531L17.3999 14.7783C16.7063 15.8143 15.8143 16.7063 14.7783 17.3999Z" fill="white"/>
<path d="M12.6663 9.50001C12.6663 11.2489 11.2486 12.6667 9.49967 12.6667C7.75077 12.6667 6.33301 11.2489 6.33301 9.50001C6.33301 7.75111 7.75077 6.33334 9.49967 6.33334C11.2486 6.33334 12.6663 7.75111 12.6663 9.50001Z" fill="white"/>
</svg>
