<svg width="54" height="31" viewBox="0 0 54 31" fill="none" xmlns="http://www.w3.org/2000/svg">
<path d="M12.4475 -2.07365e-09L0 0L2.15764e-07 30.3878L12.4475 30.3878L12.4475 -2.07365e-09Z" fill="#414141"/>
<path fill-rule="evenodd" clip-rule="evenodd" d="M23.127 1.16663L23.127 19.367L12.4474 30.3879L3.75212 20.9029L23.127 1.16663Z" fill="#414141"/>
<path fill-rule="evenodd" clip-rule="evenodd" d="M22.9297 1.2724L22.9297 19.4728L33.7863 30.3879L42.3045 21.0087L22.9297 1.2724Z" fill="#414141"/>
<path d="M46.2336 -2.07365e-09L33.7861 0L33.7861 30.3878L46.2336 30.3878L46.2336 -2.07365e-09Z" fill="#414141"/>
<path d="M53.7415 -1.66402e-09L43.7529 0L43.7529 9.07688L53.7415 9.07688L53.7415 -1.66402e-09Z" fill="#414141"/>
<path d="M53.7415 11.7079L43.7529 11.7079L43.7529 20.7848L53.7415 20.7848L53.7415 11.7079Z" fill="#414141"/>
<path fill-rule="evenodd" clip-rule="evenodd" d="M33.8324 29.8629L29.2393 7.66293L33.8324 12.256L33.8324 29.8629Z" fill="black"/>
</svg>
