<svg width="2537" height="1310" viewBox="0 0 2537 1310" fill="none" xmlns="http://www.w3.org/2000/svg">
<path d="M1720.38 916.243C1706.76 929.873 1690.12 951.075 1690.12 972.278C1690.12 975.306 1691.63 976.821 1691.63 979.85C1691.63 1022.25 1674.99 1085.86 1653.81 1126.75C1644.73 1152.5 1623.55 1170.67 1609.93 1193.39C1588.75 1228.22 1563.03 1261.54 1520.67 1273.65C1502.51 1278.2 1473.76 1310 1441.99 1310C1384.5 1310 1384.5 1296.37 1349.7 1275.17C1313.39 1253.97 1314.9 1211.56 1289.18 1196.42C1274.05 1191.87 1266.49 1119.18 1243.79 1094.95C1224.12 1075.26 1218.07 961.676 1215.05 911.699C1215.05 895.04 1189.33 872.324 1189.33 852.636C1189.33 846.578 1190.84 840.52 1190.84 834.462C1190.84 826.89 1183.27 795.087 1177.22 778.428C1172.68 763.283 1139.4 673.931 1140.91 673.931C1107.63 673.931 1062.24 802.659 1065.26 799.63C1050.13 820.832 1048.62 854.15 1038.03 878.381C1025.93 904.127 1019.87 932.902 1010.8 958.647C1007.77 972.277 965.406 1034.37 935.147 1034.37C926.069 1034.37 920.017 1026.8 910.939 1026.8C904.888 1026.8 895.81 1035.88 888.245 1035.88C845.882 1035.88 794.441 976.821 794.441 908.67C792.928 893.526 792.928 875.353 777.798 863.237C765.695 810.231 749.052 748.139 749.052 692.104C749.052 669.387 750.565 646.67 750.565 623.954C750.565 580.035 743 539.145 743 495.225C743 428.59 773.259 340.751 773.259 233.225C773.259 219.595 782.337 207.48 782.337 193.85C782.337 189.306 780.824 183.249 780.824 178.705C780.824 172.647 782.337 168.104 783.85 162.046C789.902 127.214 788.389 0 830.752 0C892.784 0 898.836 30.289 898.836 74.208C898.836 148.416 867.063 257.457 859.499 351.353C859.499 361.954 861.012 372.555 861.012 383.156C861.012 395.272 856.473 405.873 856.473 416.474C856.473 425.561 859.499 434.647 859.499 443.734C859.499 448.277 857.986 452.821 856.473 457.364C857.986 464.936 857.986 470.994 857.986 478.566C857.986 510.37 842.856 542.173 842.856 572.462C842.856 577.006 844.369 625.468 859.499 637.584C859.499 642.127 857.986 648.185 857.986 654.243C857.986 667.873 862.525 681.503 862.525 695.133C862.525 701.191 865.55 810.231 880.68 832.948C895.81 845.064 885.219 913.214 912.452 913.214C927.582 913.214 942.712 879.896 948.764 863.237C969.945 795.087 1004.74 734.509 1041.05 675.445C1078.88 613.353 1136.37 475.538 1242.28 475.538C1317.93 475.538 1307.34 725.422 1319.44 834.462C1322.47 858.694 1328.52 882.925 1328.52 907.156C1328.52 911.699 1327.01 917.757 1327.01 922.301C1327.01 919.272 1342.14 963.191 1349.7 975.306C1372.39 1011.65 1366.34 1057.09 1390.55 1091.92C1392.06 1093.43 1419.3 1187.33 1460.15 1187.33C1490.41 1187.33 1522.18 1114.64 1541.85 1087.38C1561.52 1079.8 1575.13 969.249 1611.44 949.561C1634.14 937.445 1635.65 913.214 1635.65 890.497C1635.65 832.948 1659.86 781.457 1659.86 728.451C1659.86 717.85 1656.83 705.734 1674.99 705.734C1676.5 705.734 1678.01 707.248 1679.53 707.248C1685.58 707.248 1691.63 702.705 1691.63 699.676C1691.63 693.619 1687.09 687.561 1687.09 681.503C1687.09 672.416 1691.63 661.815 1691.63 652.728C1691.63 646.67 1690.12 642.127 1690.12 636.069C1690.12 616.381 1696.17 599.723 1697.68 580.035C1697.68 563.376 1712.81 548.231 1712.81 530.058C1712.81 522.486 1711.3 513.399 1711.3 504.312C1711.3 493.711 1712.81 481.595 1712.81 470.994C1712.81 457.364 1711.3 445.249 1703.73 433.133C1705.25 425.561 1708.27 416.474 1708.27 410.416C1708.27 401.329 1702.22 392.243 1702.22 384.67C1702.22 363.468 1712.81 325.607 1712.81 295.318C1712.81 266.543 1708.27 234.74 1708.27 204.451C1708.27 177.191 1741.56 143.873 1773.33 143.873C1791.49 143.873 1793 171.133 1793 190.821C1793 242.312 1770.31 246.856 1770.31 280.173C1770.31 290.775 1773.33 301.376 1773.33 313.491C1773.33 321.064 1770.31 327.121 1770.31 334.694C1770.31 363.468 1788.46 399.815 1788.46 417.988C1788.46 440.705 1779.38 486.139 1779.38 508.855C1779.38 530.058 1786.95 548.231 1786.95 567.919C1786.95 625.468 1752.15 669.387 1752.15 716.335C1752.15 723.908 1753.66 731.48 1755.18 739.052C1755.18 745.11 1753.66 748.139 1750.64 748.139C1747.61 748.139 1744.59 746.624 1741.56 745.11C1730.97 745.11 1717.35 764.798 1717.35 775.399C1717.35 790.543 1726.43 808.717 1726.43 823.861C1726.43 854.15 1723.4 884.439 1720.38 916.243ZM1685.58 773.884V764.798C1682.55 764.798 1682.55 764.798 1682.55 766.312C1682.55 772.37 1682.55 773.884 1685.58 773.884ZM1700.71 504.312C1699.2 517.942 1700.71 520.971 1696.17 525.514C1693.14 522.486 1690.12 519.457 1690.12 513.399C1690.12 504.312 1693.14 501.283 1697.68 496.74C1700.71 499.769 1700.71 502.798 1700.71 504.312ZM1732.48 776.913C1732.48 781.457 1732.48 784.486 1729.46 784.486C1726.43 784.486 1724.92 779.942 1724.92 779.942C1724.92 778.428 1727.94 773.884 1729.46 773.884C1730.97 773.884 1732.48 775.399 1732.48 776.913Z" fill="url(#paint0_linear_522_2)" fill-opacity="0.8"/>
<path d="M239.146 726.925C235.814 730.251 231.742 735.424 231.742 740.598C231.742 741.337 232.112 741.706 232.112 742.445C232.112 752.792 228.04 768.311 222.857 778.288C220.636 784.57 215.453 789.004 212.121 794.547C206.939 803.046 200.645 811.175 190.28 814.132C185.838 815.24 178.804 823 171.03 823C156.962 823 156.962 819.674 148.448 814.501C139.563 809.328 139.934 798.981 133.64 795.286C129.938 794.178 128.087 776.441 122.534 770.528C117.722 765.725 116.241 738.011 115.501 725.817C115.501 721.752 109.207 716.209 109.207 711.406C109.207 709.928 109.578 708.45 109.578 706.971C109.578 705.124 107.727 697.364 106.246 693.299C105.135 689.604 96.9909 667.803 97.3611 667.803C89.2169 667.803 78.111 699.212 78.8514 698.473C75.1495 703.646 74.7793 711.775 72.1879 717.687C69.2264 723.969 67.7456 730.99 65.5244 737.272C64.784 740.598 54.4186 755.748 47.0147 755.748C44.7935 755.748 43.3128 753.9 41.0916 753.9C39.6108 753.9 37.3896 756.117 35.5387 756.117C25.1732 756.117 12.5866 741.706 12.5866 725.078C12.2164 721.383 12.2164 716.948 8.51447 713.992C5.55292 701.059 1.48078 685.909 1.48078 672.237C1.48078 666.694 1.85097 661.151 1.85097 655.609C1.85097 644.893 0 634.916 0 624.2C0 607.941 7.40389 586.509 7.40389 560.273C7.40389 556.947 9.62506 553.991 9.62506 550.666C9.62506 549.557 9.25486 548.079 9.25486 546.97C9.25486 545.492 9.62506 544.384 9.99525 542.906C11.476 534.407 11.1058 503.367 21.4713 503.367C36.6493 503.367 38.13 510.758 38.13 521.474C38.13 539.58 30.3559 566.185 28.505 589.095C28.505 591.682 28.8752 594.269 28.8752 596.855C28.8752 599.811 27.7646 602.398 27.7646 604.985C27.7646 607.202 28.505 609.419 28.505 611.636C28.505 612.745 28.1348 613.853 27.7646 614.962C28.1348 616.809 28.1348 618.287 28.1348 620.135C28.1348 627.895 24.4328 635.655 24.4328 643.045C24.4328 644.154 24.803 655.978 28.505 658.934C28.505 660.043 28.1348 661.521 28.1348 662.999C28.1348 666.325 29.2454 669.65 29.2454 672.976C29.2454 674.454 29.9858 701.059 33.6877 706.602C37.3896 709.558 34.7983 726.186 41.4618 726.186C45.1637 726.186 48.8657 718.057 50.3464 713.992C55.5292 697.364 64.0436 682.583 72.9283 668.172C82.1832 653.022 96.2506 619.396 122.164 619.396C140.674 619.396 138.083 680.366 141.044 706.971C141.784 712.884 143.265 718.796 143.265 724.708C143.265 725.817 142.895 727.295 142.895 728.404C142.895 727.664 146.597 738.38 148.448 741.337C154.001 750.205 152.52 761.291 158.443 769.789C158.813 770.159 165.477 793.069 175.472 793.069C182.876 793.069 190.65 775.332 195.463 768.681C200.275 766.833 203.607 739.859 212.492 735.055C218.045 732.099 218.415 726.186 218.415 720.644C218.415 706.602 224.338 694.038 224.338 681.105C224.338 678.519 223.597 675.562 228.04 675.562C228.41 675.562 228.78 675.932 229.15 675.932C230.631 675.932 232.112 674.823 232.112 674.084C232.112 672.606 231.001 671.128 231.001 669.65C231.001 667.433 232.112 664.846 232.112 662.629C232.112 661.151 231.742 660.043 231.742 658.565C231.742 653.761 233.223 649.696 233.593 644.893C233.593 640.828 237.295 637.133 237.295 632.698C237.295 630.851 236.924 628.634 236.924 626.417C236.924 623.83 237.295 620.874 237.295 618.287C237.295 614.962 236.924 612.005 235.073 609.049C235.444 607.202 236.184 604.985 236.184 603.507C236.184 601.289 234.703 599.072 234.703 597.225C234.703 592.052 237.295 582.814 237.295 575.423C237.295 568.402 236.184 560.643 236.184 553.252C236.184 546.601 244.328 538.471 252.102 538.471C256.545 538.471 256.915 545.123 256.915 549.927C256.915 562.49 251.362 563.599 251.362 571.728C251.362 574.315 252.102 576.901 252.102 579.857C252.102 581.705 251.362 583.183 251.362 585.031C251.362 592.052 255.804 600.92 255.804 605.354C255.804 610.897 253.583 621.982 253.583 627.525C253.583 632.698 255.434 637.133 255.434 641.936C255.434 655.978 246.92 666.694 246.92 678.149C246.92 679.997 247.29 681.844 247.66 683.692C247.66 685.17 247.29 685.909 246.549 685.909C245.809 685.909 245.069 685.539 244.328 685.17C241.737 685.17 238.405 689.974 238.405 692.56C238.405 696.255 240.626 700.69 240.626 704.385C240.626 711.775 239.886 719.166 239.146 726.925ZM230.631 692.191V689.974C229.891 689.974 229.891 689.974 229.891 690.343C229.891 691.821 229.891 692.191 230.631 692.191ZM234.333 626.417C233.963 629.742 234.333 630.481 233.223 631.59C232.482 630.851 231.742 630.112 231.742 628.634C231.742 626.417 232.482 625.678 233.593 624.569C234.333 625.308 234.333 626.047 234.333 626.417ZM242.107 692.93C242.107 694.038 242.107 694.777 241.367 694.777C240.626 694.777 240.256 693.669 240.256 693.669C240.256 693.299 240.997 692.191 241.367 692.191C241.737 692.191 242.107 692.56 242.107 692.93Z" fill="black"/>
<path d="M404.42 731.36C407.382 733.577 410.713 734.316 410.713 738.38C410.713 741.337 407.382 746.14 407.382 750.205C407.382 752.792 412.564 753.161 417.377 753.161C428.853 753.161 446.252 750.575 460.69 750.575C462.541 750.575 464.021 750.944 465.872 750.944C467.723 750.944 469.574 750.575 471.425 749.466C482.161 750.205 499.56 751.314 499.56 760.182C499.56 774.593 492.156 775.332 482.161 775.332C471.795 775.332 461.06 773.854 450.694 773.854C428.853 773.854 406.271 775.702 383.689 776.81C364.069 776.81 362.588 750.205 362.588 725.447C362.588 725.817 364.069 713.992 366.66 711.406C366.66 708.08 364.069 705.124 364.069 701.429C364.069 700.32 364.439 699.212 364.439 698.103C364.439 686.279 363.699 674.454 363.699 662.629C363.699 660.043 366.66 656.717 366.66 654.13C366.66 649.327 360.737 642.675 360.737 637.133C360.737 634.177 364.439 631.59 364.439 627.525C364.069 624.569 363.699 621.243 363.699 618.287C363.699 614.962 364.809 612.005 364.809 609.049C364.809 606.832 364.439 604.985 364.439 603.137C364.439 601.289 365.92 599.442 365.92 597.594C365.92 593.53 364.069 589.834 364.069 586.139C364.069 579.857 365.55 569.511 365.55 561.751C365.55 559.164 365.179 556.208 365.179 553.622C365.179 543.645 366.66 509.649 374.434 509.649C374.804 509.649 375.175 510.019 375.545 510.019C384.43 513.714 400.348 515.192 405.531 515.192C407.752 515.192 410.343 514.822 412.564 514.822C416.636 514.822 420.338 516.67 424.781 516.67C427.372 516.67 429.963 516.3 432.555 516.3C446.622 516.3 460.319 518.148 474.387 518.148C476.608 518.148 479.199 517.409 481.421 517.409C490.675 517.409 506.594 518.518 506.594 529.603C506.594 531.451 506.224 532.929 506.224 534.776C506.224 536.624 507.704 539.211 507.704 541.058C507.704 543.275 504.002 545.123 497.709 546.231C467.353 546.231 436.627 544.753 406.271 540.319C403.68 540.319 400.718 542.536 400.718 545.123C400.718 565.077 402.569 584.661 402.569 604.246C402.569 608.31 401.829 612.745 401.829 617.179C401.829 629.003 402.939 631.59 412.564 631.59C417.377 631.59 426.262 630.851 435.887 630.851C449.584 630.851 463.651 632.329 463.651 641.197C463.651 670.02 404.05 645.262 404.05 670.02C404.05 675.562 405.16 680.366 405.16 685.17C405.16 687.387 402.939 689.604 402.939 691.821C402.939 693.299 404.79 695.147 404.79 696.994C404.79 698.473 404.42 699.951 404.42 701.059C404.42 704.015 406.271 706.971 406.271 709.928C406.271 714.731 403.309 721.013 403.309 723.23C403.309 725.447 403.68 727.295 404.42 731.36ZM383.689 716.948C382.949 718.427 382.579 719.905 382.579 721.013C382.579 723.23 383.319 725.447 384.43 727.664C385.54 725.078 386.281 723.969 386.281 722.491C386.281 721.752 385.54 717.318 383.689 717.318C384.43 715.84 384.8 714.362 384.8 712.884C384.8 711.775 384.059 708.45 382.208 708.45C380.357 708.45 379.987 711.036 379.987 712.145C379.987 714.362 381.098 716.209 383.689 716.948ZM396.276 691.821C397.386 688.496 397.757 686.648 397.757 685.539C397.757 684.061 397.757 682.214 395.906 680.366C394.055 682.583 393.684 684.8 393.684 685.909C393.684 687.757 394.425 689.235 396.276 691.821ZM382.579 628.264C382.949 624.569 382.949 620.874 383.319 617.548C383.319 617.179 381.838 616.44 381.468 616.44C380.357 616.44 380.357 619.396 380.357 620.504C380.357 623.091 381.098 625.308 382.579 628.264ZM393.314 612.005C394.425 610.897 394.795 609.788 394.795 608.68C394.795 606.832 394.055 606.093 392.944 606.093C391.833 606.093 391.833 607.941 391.833 608.31C391.833 609.788 392.574 610.897 393.314 612.005ZM380.357 671.867C379.987 671.498 379.617 671.128 379.617 671.128C379.247 671.128 378.877 671.498 378.506 671.867C378.506 672.606 378.877 673.345 379.247 673.345C380.357 673.345 379.617 672.606 380.357 671.867ZM394.055 627.895C394.055 627.156 393.684 626.417 392.944 626.047L392.204 626.786C392.574 627.525 392.944 628.264 393.314 628.634C393.314 628.634 393.684 628.264 394.055 627.895ZM374.064 714.731C374.064 714.362 374.064 713.623 373.324 713.623C373.324 713.623 372.954 713.623 372.954 713.992C372.954 714.731 373.324 714.731 374.064 714.731Z" fill="black"/>
<path d="M797.789 758.334C795.568 757.595 794.458 757.226 793.717 757.226C792.236 757.226 787.424 762.769 781.871 762.769C778.169 762.769 775.207 759.813 770.395 759.813C763.731 759.813 756.327 764.247 749.294 764.247C748.183 764.247 747.443 763.877 746.332 763.877C743.371 766.094 740.039 765.725 736.707 765.725C733.005 765.725 720.419 770.898 714.125 770.898C711.534 770.898 710.794 767.572 708.943 767.572C708.202 767.572 707.832 767.942 707.092 767.942C705.981 767.942 704.5 767.572 703.019 767.572C698.207 767.572 692.654 773.485 686.731 773.485C681.178 773.485 676.736 777.18 671.553 777.18C670.072 777.18 668.591 776.441 667.111 776.441C663.038 776.441 659.707 781.984 653.784 781.984C652.303 781.984 650.452 781.614 648.601 781.614C646.01 781.614 618.615 788.265 613.432 791.591C607.509 795.286 599.735 795.286 593.442 796.764C590.11 796.764 581.226 794.917 578.634 793.439C578.634 793.439 563.086 777.549 563.086 773.485C563.086 768.681 576.043 766.094 583.076 762.769C599.365 755.748 616.394 758.704 631.202 749.836C631.202 733.577 632.683 712.145 635.274 692.191C636.014 684.431 640.827 673.345 640.827 669.65C640.827 667.433 638.976 662.999 638.976 658.565C638.976 653.761 644.529 650.066 644.529 647.11C644.529 644.893 642.308 642.306 642.308 639.719C642.308 635.655 645.639 631.59 648.971 627.525C647.12 623.83 645.639 619.396 645.639 615.331C645.639 610.527 647.12 605.724 647.12 600.92C647.12 598.333 646.01 596.116 646.01 593.53C646.01 589.465 650.452 586.878 650.452 582.444C650.452 564.338 648.231 563.229 636.755 562.49C605.288 560.643 599.365 562.86 589.37 547.709C589 547.34 583.817 533.298 583.817 529.603C583.817 527.386 584.557 523.321 588.259 523.321C597.514 523.321 606.399 524.43 615.654 525.169C617.134 524.799 618.985 524.43 620.466 524.43C627.5 524.43 633.793 527.386 639.716 527.386C642.308 527.386 644.899 525.908 647.12 525.908C649.711 525.908 652.673 527.386 655.264 527.386C660.447 527.386 666 525.908 671.183 525.908C679.697 525.908 688.212 527.755 696.356 527.755C700.428 527.755 704.5 525.908 708.572 525.908C713.015 525.908 717.087 529.234 721.529 529.234C725.231 529.234 728.933 528.495 732.265 528.495C741.89 528.495 750.034 531.451 758.549 531.451C759.659 531.451 760.77 531.081 762.251 531.081C771.505 531.081 776.318 533.298 779.279 539.95C779.279 548.079 774.097 557.317 764.842 557.317C760.77 557.317 752.996 556.208 750.034 556.208C748.183 556.208 748.924 561.751 740.779 561.751C736.337 561.751 732.265 561.382 727.452 560.273C724.121 559.534 722.64 554.73 721.159 554.73C718.938 554.73 710.053 563.229 699.318 563.229C697.467 563.229 695.986 563.229 694.505 562.86C693.024 562.86 692.284 565.077 692.284 567.294C692.284 579.488 693.765 590.573 693.765 605.354C693.765 613.853 693.024 621.982 690.063 626.417C689.692 626.786 686.731 637.502 686.731 641.567C686.731 642.675 687.101 643.784 687.841 644.893C687.841 645.262 687.101 646.371 686.731 647.11C687.471 646.371 674.514 660.412 674.514 659.673C674.514 661.521 677.846 664.107 677.846 664.846C677.846 666.325 674.144 669.281 674.144 672.606C674.144 675.193 677.106 681.475 678.587 684.8C675.255 689.974 672.293 694.777 671.553 701.059C670.813 705.124 666 712.145 666 713.253C666 716.948 665.63 720.644 664.889 723.23V722.491C667.851 723.969 668.591 725.817 668.591 728.404C668.591 729.512 668.221 730.99 668.221 732.099C668.221 734.685 671.923 734.685 673.404 734.685C674.515 734.685 675.995 734.316 677.106 734.316C681.178 734.316 683.399 737.641 687.841 737.641C697.837 736.533 707.832 736.163 717.457 733.577C734.116 729.512 752.255 729.512 769.654 728.404C775.948 728.404 782.241 726.556 788.164 726.556C790.385 726.556 798.9 729.882 800.01 735.424C800.01 737.641 809.265 738.011 809.265 741.337C809.265 746.51 798.9 748.727 798.9 750.575C798.9 753.9 806.304 754.639 806.304 758.334C806.304 760.921 803.712 761.291 801.861 761.291C800.01 761.291 798.53 760.552 797.419 758.704H798.159C798.159 758.334 797.789 758.334 797.789 758.334ZM744.111 557.686C742.26 556.947 740.409 555.469 738.928 555.469C738.188 555.469 737.818 556.578 737.818 557.317C738.188 557.686 738.558 558.056 738.928 558.056C740.779 558.056 742.63 557.686 744.111 557.686C744.111 557.317 744.111 557.317 743.741 556.947C743.741 557.317 743.741 557.686 744.111 557.686ZM670.072 661.521C669.332 659.304 669.332 658.565 668.221 658.565C667.111 658.565 666 659.304 666 660.412C666 661.89 668.962 661.521 670.072 661.521Z" fill="black"/>
<path d="M920.113 629.003C920.483 630.851 920.483 632.698 920.483 634.546C920.483 641.936 915.3 647.479 915.3 653.761C915.3 656.348 916.04 658.934 916.04 661.151C916.04 665.955 914.56 670.759 914.56 675.562C914.56 676.671 914.56 678.149 914.93 679.258C914.93 678.888 909.747 687.757 909.747 695.516C909.747 701.429 910.858 707.711 910.858 713.623C910.858 716.209 907.896 727.664 906.415 733.946C906.415 735.424 906.785 736.533 906.785 738.011C906.785 747.988 903.824 773.485 889.016 773.485C870.877 773.485 870.877 769.42 869.026 761.66C865.694 747.249 864.953 724.339 864.953 708.819C864.953 703.646 870.506 700.69 870.506 694.408C870.506 693.299 870.136 691.821 870.136 690.713C870.136 688.126 873.098 685.909 873.098 683.692C873.098 680.366 867.545 675.193 867.545 669.65C867.545 650.805 874.949 637.133 877.17 620.135C880.872 599.811 887.535 575.423 887.535 556.578C887.535 552.144 882.353 548.818 882.353 545.492C882.353 539.58 888.646 536.993 894.569 536.993C908.266 536.993 910.117 558.795 911.228 576.532C909.007 583.183 908.636 593.899 908.636 600.92C908.636 602.398 908.636 606.463 911.228 606.463C914.56 606.463 914.93 602.768 914.93 599.811C914.93 586.878 924.925 587.987 926.036 579.488C926.036 577.271 925.295 575.054 925.295 572.467C925.295 569.141 931.959 556.947 936.771 552.513C941.214 548.448 937.882 539.58 945.656 538.471C946.396 538.102 947.137 536.993 947.507 536.254C950.468 528.864 955.651 522.213 963.055 517.779C968.978 514.083 972.31 505.954 980.084 505.954C980.454 505.954 981.565 505.954 981.935 505.584C984.896 500.781 993.041 500.411 997.113 500.411C999.334 500.411 1013.77 504.106 1013.77 508.171C1013.77 509.28 1013.4 510.758 1013.4 511.497C1013.4 513.344 1014.51 514.083 1016.73 514.453C1020.44 516.3 1022.29 535.515 1023.4 543.645C1023.03 549.188 1019.32 553.991 1018.58 559.164C1017.1 567.294 1008.96 572.467 1008.96 576.901C1008.96 581.336 1002.67 582.814 1002.67 588.726C1002.67 594.269 994.151 592.421 994.151 597.964C994.151 600.181 997.483 601.659 999.704 601.659C1001.93 601.659 1004.52 600.181 1007.11 600.181C1020.07 600.181 1028.21 600.55 1037.46 607.941C1042.28 612.005 1049.68 624.569 1057.45 624.569C1060.42 624.569 1073.37 618.657 1077.45 618.657C1081.15 618.657 1084.48 623.83 1084.48 627.525C1084.48 648.588 1053.38 627.156 1053.38 686.648C1053.38 687.757 1053.75 689.235 1053.75 690.343C1053.75 696.255 1047.83 701.429 1047.83 706.971C1047.83 717.318 1042.28 723.969 1040.8 733.207C1034.5 739.489 1033.39 746.51 1030.06 753.9C1026.73 760.552 1021.92 766.094 1018.58 772.376C1018.21 773.115 1001.56 795.656 996.373 796.395C993.781 796.395 986.747 806.741 975.271 806.741C969.719 806.741 964.166 801.937 958.242 799.72C948.617 796.025 944.916 781.614 944.916 770.159C944.916 767.942 945.286 765.725 946.026 763.508C952.319 742.815 958.243 723.23 970.459 705.124C985.637 682.953 1003.04 663.738 1023.4 646.74C1027.84 643.045 1034.5 641.936 1034.5 634.916C1034.5 620.504 1022.66 615.701 1009.33 615.701C1006 615.701 1002.67 616.07 999.334 617.179C981.935 622.721 980.454 626.417 958.242 648.588C952.69 655.239 937.141 674.823 931.218 674.823C924.185 674.823 917.891 666.694 917.521 660.043C917.521 657.456 917.521 654.5 917.891 651.913C926.406 643.414 938.622 630.481 951.209 624.569C956.392 619.765 961.944 614.592 966.757 609.049C973.42 601.289 992.671 584.292 992.671 576.162C992.671 572.467 990.82 568.772 990.82 565.077C990.82 562.86 991.56 560.643 993.411 558.795C996.002 550.666 998.964 542.167 998.964 533.668C998.964 525.538 998.223 520.365 992.671 520.365C985.637 520.365 973.42 527.016 966.387 529.234L966.757 529.603C965.646 531.82 965.646 535.515 962.315 535.885C956.392 536.993 956.021 544.753 950.098 544.753C948.617 544.753 947.507 544.753 946.026 544.014C945.656 552.144 946.396 559.164 941.954 565.446C942.324 564.707 942.694 563.968 943.064 563.229C943.064 562.49 942.694 562.121 942.324 562.121C941.954 562.121 941.214 562.121 941.214 562.49C941.214 563.599 941.954 565.077 942.324 565.446C939.363 568.772 936.401 571.728 936.401 576.162C936.401 577.271 936.771 578.01 936.771 579.118C936.771 582.075 925.665 596.116 922.334 599.811C922.334 599.442 921.963 599.442 921.963 599.072C921.963 598.703 922.334 598.333 922.704 597.964C922.334 598.703 922.334 599.072 921.963 599.811C921.963 603.137 921.963 606.093 922.334 609.049C922.334 610.158 921.963 611.266 921.963 612.005C921.963 614.223 923.814 616.809 923.814 619.026C923.814 622.721 921.963 626.047 920.113 629.373C920.113 629.003 920.483 628.264 920.483 627.895C920.483 627.525 920.112 626.786 919.742 626.417C919.742 626.417 919.002 626.786 919.002 627.156C919.372 627.895 919.742 628.264 920.113 629.003ZM1031.17 669.65C1028.58 670.02 1027.1 671.867 1025.62 673.345C1018.95 679.258 967.868 723.6 965.276 774.963C965.276 778.288 965.646 783.462 970.089 783.462C974.901 783.462 978.603 781.614 983.416 780.136C983.416 780.136 1000.44 765.355 1000.44 762.399C1000.44 761.291 1000.07 760.182 1000.07 759.073C1000.07 752.053 1010.81 751.683 1010.81 742.815C1010.81 737.641 1018.21 734.316 1018.21 730.251C1018.21 728.404 1015.99 725.817 1014.88 723.969C1020.06 711.406 1034.5 695.147 1034.5 683.322C1034.5 679.258 1032.28 676.302 1031.17 669.65ZM966.387 529.234C966.757 529.234 967.127 529.234 967.127 529.603C966.757 529.603 966.387 529.603 966.387 529.234Z" fill="black"/>
<path d="M1209.45 731.36C1212.41 733.577 1215.74 734.316 1215.74 738.38C1215.74 741.337 1212.41 746.14 1212.41 750.205C1212.41 752.792 1217.59 753.161 1222.41 753.161C1233.88 753.161 1251.28 750.575 1265.72 750.575C1267.57 750.575 1269.05 750.944 1270.9 750.944C1272.75 750.944 1274.6 750.575 1276.45 749.466C1287.19 750.205 1304.59 751.314 1304.59 760.182C1304.59 774.593 1297.18 775.332 1287.19 775.332C1276.82 775.332 1266.09 773.854 1255.72 773.854C1233.88 773.854 1211.3 775.702 1188.72 776.81C1169.1 776.81 1167.62 750.205 1167.62 725.447C1167.62 725.817 1169.1 713.992 1171.69 711.406C1171.69 708.08 1169.1 705.124 1169.1 701.429C1169.1 700.32 1169.47 699.212 1169.47 698.103C1169.47 686.279 1168.73 674.454 1168.73 662.629C1168.73 660.043 1171.69 656.717 1171.69 654.13C1171.69 649.327 1165.77 642.675 1165.77 637.133C1165.77 634.177 1169.47 631.59 1169.47 627.525C1169.1 624.569 1168.73 621.243 1168.73 618.287C1168.73 614.962 1169.84 612.005 1169.84 609.049C1169.84 606.832 1169.47 604.985 1169.47 603.137C1169.47 601.289 1170.95 599.442 1170.95 597.594C1170.95 593.53 1169.1 589.834 1169.1 586.139C1169.1 579.857 1170.58 569.511 1170.58 561.751C1170.58 559.164 1170.21 556.208 1170.21 553.622C1170.21 543.645 1171.69 509.649 1179.46 509.649C1179.83 509.649 1180.2 510.019 1180.57 510.019C1189.46 513.714 1205.38 515.192 1210.56 515.192C1212.78 515.192 1215.37 514.822 1217.59 514.822C1221.66 514.822 1225.37 516.67 1229.81 516.67C1232.4 516.67 1234.99 516.3 1237.58 516.3C1251.65 516.3 1265.35 518.148 1279.42 518.148C1281.64 518.148 1284.23 517.409 1286.45 517.409C1295.7 517.409 1311.62 518.518 1311.62 529.603C1311.62 531.451 1311.25 532.929 1311.25 534.776C1311.25 536.624 1312.73 539.211 1312.73 541.058C1312.73 543.275 1309.03 545.123 1302.74 546.231C1272.38 546.231 1241.66 544.753 1211.3 540.319C1208.71 540.319 1205.75 542.536 1205.75 545.123C1205.75 565.077 1207.6 584.661 1207.6 604.246C1207.6 608.31 1206.86 612.745 1206.86 617.179C1206.86 629.003 1207.97 631.59 1217.59 631.59C1222.41 631.59 1231.29 630.851 1240.91 630.851C1254.61 630.851 1268.68 632.329 1268.68 641.197C1268.68 670.02 1209.08 645.262 1209.08 670.02C1209.08 675.562 1210.19 680.366 1210.19 685.17C1210.19 687.387 1207.97 689.604 1207.97 691.821C1207.97 693.299 1209.82 695.147 1209.82 696.994C1209.82 698.473 1209.45 699.951 1209.45 701.059C1209.45 704.015 1211.3 706.971 1211.3 709.928C1211.3 714.731 1208.34 721.013 1208.34 723.23C1208.34 725.447 1208.71 727.295 1209.45 731.36ZM1188.72 716.948C1187.98 718.427 1187.61 719.905 1187.61 721.013C1187.61 723.23 1188.35 725.447 1189.46 727.664C1190.57 725.078 1191.31 723.969 1191.31 722.491C1191.31 721.752 1190.57 717.318 1188.72 717.318C1189.46 715.84 1189.83 714.362 1189.83 712.884C1189.83 711.775 1189.09 708.45 1187.24 708.45C1185.39 708.45 1185.02 711.036 1185.02 712.145C1185.02 714.362 1186.13 716.209 1188.72 716.948ZM1201.3 691.821C1202.41 688.496 1202.78 686.648 1202.78 685.539C1202.78 684.061 1202.78 682.214 1200.93 680.366C1199.08 682.583 1198.71 684.8 1198.71 685.909C1198.71 687.757 1199.45 689.235 1201.3 691.821ZM1187.61 628.264C1187.98 624.569 1187.98 620.874 1188.35 617.548C1188.35 617.179 1186.87 616.44 1186.5 616.44C1185.39 616.44 1185.39 619.396 1185.39 620.504C1185.39 623.091 1186.13 625.308 1187.61 628.264ZM1198.34 612.005C1199.45 610.897 1199.82 609.788 1199.82 608.68C1199.82 606.832 1199.08 606.093 1197.97 606.093C1196.86 606.093 1196.86 607.941 1196.86 608.31C1196.86 609.788 1197.6 610.897 1198.34 612.005ZM1185.39 671.867C1185.02 671.498 1184.65 671.128 1184.65 671.128C1184.28 671.128 1183.9 671.498 1183.53 671.867C1183.53 672.606 1183.9 673.345 1184.28 673.345C1185.39 673.345 1184.65 672.606 1185.39 671.867ZM1199.08 627.895C1199.08 627.156 1198.71 626.417 1197.97 626.047L1197.23 626.786C1197.6 627.525 1197.97 628.264 1198.34 628.634C1198.34 628.634 1198.71 628.264 1199.08 627.895ZM1179.09 714.731C1179.09 714.362 1179.09 713.623 1178.35 713.623C1178.35 713.623 1177.98 713.623 1177.98 713.992C1177.98 714.731 1178.35 714.731 1179.09 714.731Z" fill="black"/>
<path d="M1497.95 603.137C1497.95 604.246 1497.58 605.354 1497.58 606.093C1497.58 607.202 1497.95 607.941 1499.8 608.31C1506.1 610.527 1503.13 623.091 1505.73 623.091C1506.47 623.091 1507.58 622.352 1507.95 622.352C1512.02 622.352 1514.24 633.068 1514.98 637.872C1516.09 646.74 1526.09 651.174 1526.09 657.456C1526.09 660.043 1533.49 670.02 1535.34 670.02C1537.93 670.02 1539.78 661.89 1539.78 660.782C1539.78 659.304 1537.93 658.565 1537.93 655.609C1539.04 652.283 1540.15 642.675 1540.15 640.089C1540.15 638.611 1536.82 637.502 1536.82 634.546C1536.82 627.895 1539.04 620.874 1539.04 614.223C1539.04 610.527 1544.6 609.419 1544.6 607.941C1544.6 606.832 1543.12 606.832 1540.52 603.137C1542.37 569.511 1550.89 537.732 1550.89 501.52C1550.89 495.238 1560.14 495.238 1565.7 495.238C1573.1 495.238 1577.17 500.411 1577.17 508.171C1577.17 530.712 1569.03 552.883 1569.03 575.423C1569.03 588.726 1559.4 592.421 1559.4 601.289C1559.4 606.093 1553.11 613.853 1552 619.396C1554.59 617.918 1556.44 616.44 1557.55 616.44C1558.29 616.44 1558.66 617.548 1558.66 617.918C1557.55 621.243 1556.81 624.939 1556.81 628.264C1556.81 632.698 1559.4 636.394 1559.4 640.828C1559.4 640.458 1558.66 645.632 1556.07 645.632C1553.48 645.632 1553.48 641.197 1553.48 638.241C1551.63 638.98 1551.63 640.089 1551.63 640.828C1551.63 641.567 1552 641.936 1552 642.675C1552 647.479 1547.19 648.957 1547.19 651.544C1549.78 653.022 1553.85 653.391 1553.85 655.609C1553.85 655.978 1553.85 656.348 1553.48 656.717C1550.52 660.043 1551.26 664.477 1550.89 668.542C1550.89 669.281 1551.26 670.389 1552 671.128C1557.18 676.302 1557.55 689.235 1557.55 699.212C1557.55 710.297 1562.37 718.796 1562.37 728.773C1562.37 738.011 1559.77 744.662 1559.77 752.422C1559.77 755.009 1560.14 757.965 1560.14 760.552C1560.14 768.681 1552.74 771.268 1544.23 774.224C1539.04 767.572 1536.08 759.813 1533.86 751.683C1530.9 742.076 1524.24 730.621 1523.12 722.122C1523.12 719.166 1518.31 714.731 1518.31 708.08C1518.31 706.232 1511.65 696.625 1508.32 695.516C1509.06 695.886 1499.8 677.41 1494.62 670.389C1492.03 666.694 1483.88 658.565 1483.88 642.306C1483.88 641.567 1484.25 640.458 1484.25 639.719C1484.25 638.98 1483.14 636.024 1480.92 636.024C1479.44 636.024 1477.96 637.872 1476.85 637.872C1469.08 637.872 1469.08 597.225 1461.3 597.225C1459.82 597.225 1458.71 599.442 1457.97 600.181C1456.12 597.225 1451.68 585.031 1447.98 585.031C1443.53 585.031 1438.35 603.137 1438.35 612.005C1438.35 617.548 1442.79 625.678 1442.79 633.807C1442.79 641.936 1438.35 646.74 1438.35 650.066C1438.35 651.174 1442.79 655.609 1442.79 663.738C1442.79 672.606 1439.09 678.149 1439.09 684.431C1439.09 689.974 1443.53 697.364 1443.53 703.646C1443.53 705.863 1439.83 709.928 1439.83 713.623C1439.83 715.47 1440.2 717.687 1440.2 719.535C1440.2 724.708 1434.28 725.078 1434.28 729.143C1434.28 733.207 1440.2 737.272 1440.2 755.748C1440.2 755.748 1434.28 781.614 1424.28 781.614C1411.7 781.614 1406.51 757.595 1406.51 750.944C1406.51 744.293 1409.84 737.641 1409.84 732.468C1409.84 727.664 1406.14 723.6 1406.14 718.057C1406.14 713.623 1408.36 709.928 1408.36 706.232C1408.36 698.842 1406.51 687.757 1404.66 681.105C1403.55 677.78 1401.33 674.454 1401.33 671.128C1401.33 666.694 1407.25 665.216 1407.25 660.412C1407.25 654.87 1406.88 649.327 1406.14 643.784C1406.14 641.197 1403.18 638.611 1403.18 635.655C1403.18 632.329 1407.62 630.481 1407.62 626.417C1407.62 624.939 1407.25 623.83 1407.25 621.982C1407.25 619.396 1409.1 617.179 1409.1 614.962C1409.1 610.158 1406.51 604.246 1406.51 598.703C1406.51 593.53 1408.73 587.987 1408.73 582.814C1408.73 579.488 1407.25 576.532 1407.25 573.206C1407.25 572.098 1407.62 571.359 1407.62 570.25C1410.22 551.405 1411.33 531.451 1415.4 512.605C1415.4 508.171 1431.32 502.259 1437.24 502.259C1445.38 502.259 1444.64 510.758 1449.83 515.931C1457.97 524.43 1465 534.407 1468.71 546.231C1472.04 557.317 1483.14 579.118 1483.14 580.966C1483.88 580.966 1484.62 580.596 1485.73 580.227C1487.22 580.227 1489.07 581.705 1489.07 583.922C1489.07 585.031 1488.33 586.878 1488.33 587.987C1488.33 588.356 1488.7 588.726 1489.07 589.095C1495.36 591.682 1491.66 600.92 1497.95 603.137ZM1427.24 650.805C1427.98 654.13 1428.35 663.738 1432.06 663.738C1434.28 663.738 1435.76 661.151 1435.76 658.934C1435.39 654.5 1435.39 647.11 1433.54 643.045C1433.17 643.414 1429.84 646.74 1427.24 650.805ZM1432.06 715.84C1431.69 710.667 1431.69 711.406 1430.58 709.189C1428.35 710.297 1427.24 715.101 1427.24 718.057C1427.24 719.905 1427.98 720.644 1429.84 721.383C1431.69 719.535 1431.32 716.579 1432.06 715.84ZM1426.87 618.657C1426.87 620.504 1426.87 622.721 1426.87 624.569C1426.87 627.525 1426.87 629.742 1427.61 629.742C1428.72 628.634 1428.72 626.786 1428.72 625.308C1428.72 623.461 1428.35 621.243 1426.87 618.657ZM1418.73 605.354C1421.32 604.615 1422.8 603.137 1422.8 600.55C1422.8 599.072 1422.06 597.594 1420.21 597.594C1419.1 597.594 1417.99 598.703 1417.99 600.181C1417.99 601.659 1418.36 603.507 1418.73 605.354ZM1419.84 613.853C1420.95 614.223 1422.43 613.114 1422.43 611.266C1422.43 610.897 1420.95 610.158 1420.58 610.158C1419.84 610.158 1419.1 610.897 1419.1 612.005C1419.1 612.745 1419.47 613.484 1419.84 613.853ZM1421.69 633.437C1420.95 632.698 1420.58 631.959 1419.84 631.959C1419.47 631.959 1418.73 632.698 1417.99 633.068C1417.99 634.177 1417.99 637.133 1419.1 637.133C1420.21 637.133 1421.69 634.546 1421.69 633.437ZM1436.5 702.168C1436.5 701.429 1436.13 700.69 1435.76 700.69C1435.39 700.69 1434.65 701.429 1434.65 702.168C1434.65 702.907 1435.39 703.646 1435.76 703.646C1436.13 703.646 1436.5 702.907 1436.5 702.168ZM1414.66 679.627C1414.66 678.149 1414.29 678.519 1413.55 677.41C1413.18 678.149 1412.81 678.888 1412.81 679.627C1412.81 679.997 1413.18 680.736 1413.18 681.105C1413.92 681.105 1414.66 680.736 1414.66 679.627ZM1561.62 566.185C1560.88 566.185 1560.51 566.924 1560.51 567.294C1560.51 568.033 1560.88 568.033 1561.25 568.033C1561.62 568.033 1561.62 568.033 1561.99 567.294C1561.99 566.924 1561.62 566.555 1561.62 566.185ZM1419.47 651.913L1419.1 650.805L1418.73 651.544L1419.47 651.913ZM1419.1 662.26C1419.47 662.26 1419.84 661.89 1419.84 661.89C1419.84 661.151 1419.84 660.782 1419.47 660.782C1419.47 660.782 1418.36 661.151 1418.36 661.521C1418.36 661.521 1418.73 661.89 1419.1 662.26ZM1553.85 629.003C1553.48 628.634 1553.11 627.895 1552.74 627.525C1552.37 627.525 1552 627.895 1552 628.264C1552 629.003 1552.37 629.742 1552.37 630.481C1553.11 629.742 1553.48 629.373 1553.85 629.003ZM1436.13 691.082C1435.76 691.452 1435.39 691.821 1435.39 692.191C1435.39 692.56 1435.76 692.93 1435.76 693.299C1436.13 692.93 1436.5 692.93 1436.5 692.56C1436.5 692.191 1436.13 691.452 1436.13 691.082ZM1561.62 577.64L1561.25 576.532L1560.51 577.64H1561.62ZM1498.32 603.507C1498.69 602.768 1499.06 602.398 1499.8 601.659C1499.8 602.398 1499.8 603.507 1499.43 603.507C1499.06 603.507 1498.32 603.137 1497.95 603.137L1498.32 603.507Z" fill="black"/>
<path d="M1684.06 673.715C1681.47 670.02 1679.62 667.064 1679.62 664.846C1679.62 664.477 1682.95 653.761 1682.95 651.913C1682.95 646.371 1681.84 640.458 1681.84 634.916C1681.84 631.959 1683.69 629.373 1683.69 626.786C1683.69 620.874 1680.73 614.223 1680.73 606.463C1680.73 601.289 1681.1 596.116 1681.1 590.573C1681.1 583.183 1678.88 573.206 1678.88 562.49C1678.88 555.469 1679.25 548.079 1679.25 541.428C1679.25 535.885 1677.02 530.712 1677.02 524.799C1677.02 517.779 1688.13 514.822 1701.83 514.822C1706.27 514.822 1709.23 515.931 1712.93 515.931C1731.81 515.931 1751.8 509.649 1769.94 509.649C1774.76 509.649 1779.57 510.019 1784.38 511.127C1784.01 511.127 1784.01 511.127 1784.01 511.127C1784.01 510.758 1785.12 510.758 1786.6 510.758C1792.9 510.758 1806.59 512.236 1806.59 518.887C1806.59 524.799 1805.85 530.712 1795.12 530.712C1789.19 530.712 1783.27 528.495 1777.35 528.495C1777.35 528.864 1719.6 532.19 1719.6 541.428C1719.97 545.492 1721.82 550.296 1721.82 555.1C1721.82 558.795 1720.34 562.86 1720.34 566.555C1720.34 568.033 1720.71 569.88 1720.71 571.359C1720.71 574.684 1719.6 577.64 1719.6 580.966C1719.6 583.553 1720.34 585.77 1720.34 587.987C1720.34 591.682 1717.75 597.964 1717.75 603.507C1717.75 625.308 1717.38 626.786 1724.78 626.786C1743.29 626.786 1745.51 624.569 1757.73 624.569C1768.83 624.569 1784.75 626.786 1784.75 642.675C1784.75 649.327 1776.24 650.805 1771.05 650.805C1765.87 650.805 1764.39 650.435 1754.39 650.435C1741.81 650.435 1722.19 651.174 1720.71 658.195C1720.71 669.281 1715.89 681.844 1715.89 688.865C1715.89 689.974 1716.26 691.821 1717.38 691.821C1719.23 691.821 1720.71 691.082 1722.19 691.082C1723.3 691.082 1725.15 692.191 1725.15 692.93C1725.15 694.408 1724.78 695.516 1724.78 696.625C1724.78 707.711 1727 718.427 1727 729.512C1727 734.316 1726.63 738.75 1726.63 743.554C1726.63 749.466 1729.22 755.009 1729.22 759.443C1729.22 766.833 1726.26 785.309 1701.83 785.309C1699.24 785.309 1697.75 782.353 1695.16 782.353C1693.31 782.353 1690.72 783.462 1688.13 784.201C1687.76 784.201 1687.39 783.831 1687.02 783.462C1687.02 780.505 1689.24 780.505 1689.24 777.18C1685.91 769.05 1682.95 762.03 1682.95 753.9C1682.95 751.314 1683.32 748.727 1683.32 746.14C1683.32 742.076 1680.36 738.011 1680.36 733.207C1680.36 724.708 1681.1 716.209 1681.1 707.341C1681.1 701.429 1679.99 695.516 1679.99 689.235C1679.99 684.061 1681.1 678.888 1684.06 673.715ZM1715.52 668.911C1715.15 664.846 1715.89 662.26 1713.3 659.673C1711.08 659.673 1710.71 665.216 1710.71 667.433C1710.71 670.759 1711.45 672.976 1712.93 675.932C1715.15 674.454 1715.15 670.759 1715.52 668.911ZM1704.05 667.803C1704.05 666.325 1703.31 662.999 1702.2 662.999C1700.35 662.999 1699.61 665.216 1699.61 667.064C1699.61 668.911 1700.35 671.128 1702.57 671.128C1703.68 671.128 1703.68 669.281 1704.05 667.803ZM1702.94 698.473C1704.05 696.995 1704.42 695.516 1704.42 694.038C1704.42 692.56 1704.05 691.082 1703.31 689.604C1702.57 691.452 1701.83 692.93 1701.83 694.777C1701.83 695.886 1702.2 697.364 1702.94 698.473ZM1702.57 624.939C1702.2 625.678 1701.83 626.417 1701.46 626.786C1701.46 627.156 1701.83 627.525 1702.2 627.895C1702.94 627.895 1703.68 627.525 1703.68 626.417C1703.68 626.047 1702.94 625.678 1702.57 624.939Z" fill="black"/>
<path d="M1887.44 677.041C1888.92 661.151 1887.07 653.761 1894.1 643.414C1898.17 637.502 1898.54 618.287 1904.84 606.832C1906.32 603.137 1908.91 599.811 1909.28 595.377C1909.65 590.943 1914.46 588.726 1914.83 584.292C1915.2 580.597 1915.57 574.315 1917.42 570.989C1931.12 549.557 1936.68 502.998 1962.96 502.998C1964.81 502.998 1967.03 502.998 1969.25 502.998C1989.98 502.998 1991.46 539.211 1991.46 556.578C1991.46 562.86 1991.46 565.077 1990.72 568.402C1996.28 576.901 1995.91 593.16 1997.02 604.615C1998.5 612.375 2001.09 619.396 2001.09 627.525C2001.09 631.59 2000.72 635.285 2000.72 639.35C2000.72 653.761 2005.53 665.216 2014.79 679.258C2013.31 683.322 2011.82 687.387 2010.34 691.082C2013.31 702.168 2015.53 723.23 2018.86 727.295C2022.56 732.099 2022.93 750.205 2026.63 760.552C2029.22 767.942 2029.59 775.702 2029.59 783.831C2027.74 785.309 2025.52 786.418 2023.67 787.526C2018.49 791.591 2011.08 800.829 2005.53 800.829C2002.2 800.829 2000.72 795.656 1998.13 794.178C1988.87 789.004 1987.02 779.397 1985.54 770.528C1984.06 762.769 1980.36 756.117 1980.36 746.879C1980.36 745.401 1980.73 743.923 1980.73 742.445C1980.73 734.316 1976.66 691.821 1966.66 691.821C1962.59 691.821 1954.81 694.777 1949.63 696.255C1945.93 700.32 1940.01 698.473 1935.93 701.429C1934.82 702.168 1933.71 702.537 1932.97 702.537C1931.49 702.537 1930.38 702.168 1928.9 701.798C1927.05 701.798 1918.91 707.711 1911.5 707.711C1897.43 707.711 1892.25 755.009 1885.96 766.094C1884.48 769.789 1876.33 792.7 1864.86 792.7C1860.41 792.7 1854.86 788.265 1854.86 784.201C1854.86 783.462 1854.86 783.092 1855.23 782.353C1858.93 772.376 1863.75 759.813 1865.97 747.988C1868.56 734.316 1878.18 711.406 1878.18 695.516C1878.18 690.713 1874.85 685.539 1874.85 680.736C1874.85 678.888 1875.96 677.41 1877.81 677.41C1879.67 677.41 1881.52 677.78 1883.37 677.78C1884.48 677.78 1885.96 677.41 1887.44 677.041ZM1930.75 614.962C1930.75 618.287 1930.75 621.613 1930.01 624.569C1929.27 629.742 1917.05 646.74 1917.05 663.368C1917.05 666.694 1916.68 672.237 1920.39 672.237C1932.97 672.237 1947.78 668.172 1960.74 666.325C1965.92 663.738 1966.29 660.043 1966.29 655.609C1966.29 637.502 1958.52 612.375 1958.52 590.943C1958.52 590.204 1958.52 589.465 1958.89 588.356V588.726C1958.52 588.726 1954.81 569.881 1952.59 569.881C1950.74 569.881 1941.12 590.943 1941.12 596.486C1941.12 604.615 1937.05 610.897 1930.75 614.962Z" fill="black"/>
<path d="M2284.46 725.078C2285.57 727.664 2285.94 729.882 2285.94 732.099C2285.94 749.836 2260.77 748.357 2245.59 749.836C2244.11 750.205 2242.63 752.053 2240.78 752.053C2239.29 752.053 2237.44 750.944 2235.59 750.944C2231.15 750.944 2220.41 758.704 2211.16 758.704C2194.13 758.704 2175.62 770.898 2157.85 772.376C2148.6 772.376 2129.72 764.616 2129.72 757.226C2129.72 753.161 2135.27 752.422 2135.27 747.988C2135.27 739.12 2132.68 729.512 2132.68 719.905C2132.68 716.209 2133.79 712.514 2133.79 708.819C2133.79 700.69 2132.68 692.56 2132.68 684.061C2132.68 679.258 2133.05 674.084 2133.05 669.281C2133.05 662.629 2129.72 655.239 2129.72 649.327C2129.72 639.35 2131.57 629.373 2131.57 619.396C2131.57 610.897 2129.72 602.398 2129.72 593.899C2129.72 585.4 2131.94 561.382 2133.79 547.34C2133.79 544.014 2132.31 541.058 2132.31 537.732C2132.31 529.973 2134.16 522.213 2134.16 514.453C2134.16 506.323 2153.04 501.15 2163.4 501.15C2168.96 501.15 2174.14 505.584 2174.14 513.344C2173.77 515.561 2173.77 517.409 2173.77 519.257C2173.77 531.081 2176.73 542.536 2176.73 553.252C2176.73 573.206 2174.14 594.638 2174.14 613.853C2174.14 617.179 2174.88 619.396 2174.88 622.352C2174.88 626.417 2173.03 630.481 2173.03 634.546C2173.03 637.502 2174.51 640.089 2174.51 643.414C2174.51 647.11 2173.4 651.174 2173.4 655.239C2173.4 659.304 2168.59 662.26 2168.59 666.694C2168.59 669.65 2174.51 675.193 2174.51 689.974C2174.51 697.364 2174.14 702.537 2174.14 708.819C2174.14 714.362 2174.14 734.685 2180.06 734.685C2199.31 731.36 2218.56 725.817 2238.18 721.383C2247.07 719.535 2255.95 716.209 2265.21 716.209C2274.46 716.209 2275.2 720.274 2284.46 725.078ZM2163.77 684.8C2164.52 683.692 2164.89 682.214 2164.89 681.475C2164.52 679.997 2164.52 678.519 2163.77 678.519C2163.03 678.519 2161.55 679.627 2161.18 680.736C2161.18 682.953 2161.55 684.8 2163.77 684.8ZM2165.26 650.066C2165.63 648.218 2166 646.371 2166.37 645.262C2165.63 643.414 2166 640.828 2164.52 640.828C2161.55 640.828 2161.18 643.784 2161.18 645.632C2161.18 647.849 2161.92 651.174 2164.52 651.174C2164.89 651.174 2165.26 650.805 2165.26 650.066Z" fill="black"/>
<path d="M2490.36 552.513C2497.39 549.927 2502.57 535.885 2505.53 529.603C2508.5 522.952 2511.09 523.691 2519.23 518.518C2529.97 524.06 2537 525.538 2537 537.732C2537 544.014 2527.38 550.666 2524.41 558.425C2522.56 562.49 2515.9 564.338 2515.9 566.555C2515.9 566.555 2507.01 598.333 2490.73 602.768C2482.21 604.985 2480.36 617.548 2471.11 621.243C2471.85 621.243 2451.86 642.306 2451.12 644.893C2448.52 653.761 2436.31 657.826 2436.31 665.955C2436.31 666.694 2436.68 667.803 2437.05 668.542C2445.93 688.865 2457.41 712.884 2475.18 727.295C2477.4 729.512 2495.54 743.184 2505.53 743.184C2511.46 743.184 2512.57 745.401 2512.57 750.205C2512.57 758.704 2502.57 760.552 2494.06 760.552C2476.29 760.552 2450.37 743.923 2435.94 728.404C2427.05 719.166 2412.61 696.255 2408.54 696.255C2407.06 696.255 2404.47 706.971 2404.47 710.297C2404.47 715.84 2406.69 722.861 2406.69 730.99C2406.69 733.577 2405.58 736.163 2405.58 738.75C2405.58 739.859 2405.95 741.337 2405.95 742.445H2406.32C2405.21 743.184 2404.47 744.293 2404.47 745.032C2404.47 746.14 2405.21 747.249 2406.32 748.357H2405.95C2407.8 753.161 2408.17 755.748 2408.17 762.03C2408.17 766.464 2407.8 771.637 2405.58 773.485C2401.14 777.919 2405.21 784.201 2399.66 787.896C2397.44 789.374 2399.66 793.439 2395.59 796.764C2393.36 796.025 2390.77 795.286 2388.18 794.547C2381.15 792.33 2373 777.18 2373 770.159C2373 732.099 2369.3 694.408 2369.3 656.348C2369.3 636.024 2370.41 615.701 2370.41 595.008C2370.41 589.834 2367.45 585.77 2367.45 578.749C2367.45 570.25 2372.26 562.121 2372.26 554.73C2372.26 537.363 2378.56 520.365 2378.56 503.367C2378.56 496.716 2380.04 491.543 2383.37 486C2411.5 487.848 2422.24 498.194 2422.24 519.626C2422.24 527.755 2417.06 536.254 2417.06 542.536C2417.06 550.666 2412.24 556.208 2412.24 575.054C2412.24 580.596 2407.06 592.791 2407.06 596.855C2407.06 598.333 2407.43 600.181 2407.43 601.659C2407.43 609.419 2405.58 618.657 2405.58 623.461C2405.58 628.264 2406.69 635.285 2415.95 635.285C2427.79 635.285 2437.79 612.005 2445.93 607.941C2449.63 606.093 2462.96 585.031 2475.55 573.206C2481.84 567.294 2486.65 559.164 2490.36 552.513ZM2386.33 570.989C2386.7 570.989 2387.07 570.62 2387.44 570.62C2388.18 570.62 2389.29 571.359 2390.4 571.728C2390.77 571.728 2391.14 570.989 2391.14 569.881C2391.14 569.141 2391.14 568.402 2390.4 568.402C2389.29 568.402 2387.44 569.881 2386.33 570.989ZM2401.14 626.786C2400.03 626.786 2398.18 626.417 2398.18 628.264C2398.18 629.742 2400.03 630.851 2400.4 630.851C2401.14 630.481 2401.51 630.481 2401.51 629.742C2401.51 628.264 2401.14 627.525 2400.77 626.417C2402.25 625.308 2402.99 623.83 2402.99 621.982C2402.99 620.874 2402.99 620.504 2402.25 619.765C2401.14 621.243 2401.14 624.569 2401.14 626.786ZM2385.59 723.969H2385.22C2385.22 723.23 2385.59 722.491 2385.59 721.752C2385.59 720.644 2384.85 719.905 2383.74 719.535C2382.26 719.535 2381.52 721.383 2381.52 722.122C2381.52 723.23 2382.26 724.339 2383.37 724.339C2384.11 724.339 2384.85 723.969 2385.59 723.969ZM2387.07 692.56C2386.7 689.974 2386.33 674.454 2384.85 674.454C2382.26 674.454 2380.78 676.671 2380.78 678.888C2380.78 681.105 2383 684.061 2383 686.279C2383 690.343 2380.78 695.147 2380.78 699.212C2380.78 700.69 2383 709.189 2385.96 709.189C2387.07 708.08 2387.07 704.385 2387.07 700.69C2387.07 697.734 2387.07 694.408 2387.07 692.56ZM2403.73 689.974C2403.36 687.757 2402.25 676.302 2397.81 676.302C2396.33 677.78 2396.33 678.519 2396.33 679.997C2396.33 679.627 2396.33 679.258 2396.33 679.258C2396.7 679.258 2397.81 691.452 2401.88 693.299C2403.36 693.299 2402.99 691.082 2403.73 689.974ZM2390.4 641.936C2391.14 641.197 2391.51 640.089 2391.51 638.98C2391.51 634.916 2391.14 636.024 2390.4 634.177C2389.29 635.285 2389.29 637.133 2389.29 638.611C2389.29 639.719 2389.66 640.828 2390.4 641.936ZM2383 621.982C2382.63 621.613 2382.26 621.613 2382.26 621.243C2380.41 621.243 2379.3 621.243 2379.3 621.982C2379.3 622.721 2379.67 623.091 2380.78 623.091C2381.52 622.721 2382.26 622.352 2383 621.982ZM2385.96 641.567C2385.59 641.197 2385.59 640.828 2385.22 640.828C2384.85 640.828 2384.11 641.197 2384.11 641.567C2384.11 642.306 2384.48 643.045 2384.85 643.045C2385.59 643.045 2385.96 642.675 2385.96 641.567ZM2384.85 733.207L2385.22 734.316L2385.59 733.577L2384.85 733.207ZM2398.92 735.424C2398.92 735.794 2398.55 736.163 2398.55 736.163C2398.55 736.902 2398.92 737.272 2399.29 737.272C2399.29 737.272 2399.66 737.272 2400.03 736.533C2400.03 736.163 2400.03 735.424 2398.92 735.424ZM2394.11 747.988C2394.11 747.249 2393.36 747.249 2392.99 747.249C2392.99 747.618 2393.36 747.988 2393.36 748.357C2393.73 748.357 2393.74 748.357 2394.11 747.988ZM2401.51 699.951L2401.88 701.059L2402.25 700.32L2401.51 699.951ZM2385.22 611.636L2384.85 612.745H2385.59L2385.22 611.636Z" fill="black"/>
<defs>
<linearGradient id="paint0_linear_522_2" x1="1268" y1="0" x2="1268" y2="1310" gradientUnits="userSpaceOnUse">
<stop stop-color="#FF6B4A"/>
<stop offset="1" stop-color="#2EDFD5"/>
</linearGradient>
</defs>
</svg>
