<svg width="22" height="16" viewBox="0 0 22 16" fill="none" xmlns="http://www.w3.org/2000/svg">
<path d="M21.3172 2.3767C21.0668 1.44118 20.329 0.704391 19.3923 0.454351C17.6944 0 10.8861 0 10.8861 0C10.8861 0 4.07777 0 2.37984 0.454351C1.44311 0.70443 0.705348 1.44118 0.45495 2.3767C0 4.07239 0 7.61028 0 7.61028C0 7.61028 0 11.1482 0.45495 12.8439C0.705348 13.7794 1.44311 14.4855 2.37984 14.7355C4.07777 15.1899 10.8861 15.1899 10.8861 15.1899C10.8861 15.1899 17.6944 15.1899 19.3923 14.7355C20.329 14.4855 21.0668 13.7794 21.3172 12.8439C21.7722 11.1482 21.7722 7.61028 21.7722 7.61028C21.7722 7.61028 21.7722 4.07239 21.3172 2.3767ZM8.6076 10.6329V4.05063L14.1772 7.34185L8.6076 10.6329Z" fill="white"/>
</svg>
